{"title":"The Last Ship S03E10 Scuttle 720p WEB-DL HEVC 2CH x265","uid":15645669,"size":327456516,"categoryP":"video","categoryS":"hd___tv_shows","magnet":"?xt=urn:btih:4517295835b96984027401179fd44c22e9198e35&amp;dn=The+Last+Ship+S03E10+Scuttle+720p+WEB-DL+HEVC+2CH+x265&amp;tr=udp%3A%2F%2Ftracker.leechers-paradise.org%3A6969&amp;tr=udp%3A%2F%2Fzer0day.ch%3A1337&amp;tr=udp%3A%2F%2Fopen.demonii.com%3A1337&amp;tr=udp%3A%2F%2Ftracker.coppersurfer.tk%3A6969&amp;tr=udp%3A%2F%2Fexodus.desync.com%3A6969","seeders":0,"leechers":0,"uploader":"nayhtut","files":1,"time":1472050976,"description":"[Screenshots]\r\n \nhttps://s3.postimg.org/dy1n8h78j/The_Last_Ship_S03_E10_Scuttle_720p_WEB_DL_HEVC_2_C.jpg \nhttps://s3.postimg.org/66kx9x337/The_Last_Ship_S03_E10_Scuttle_720p_WEB_DL_HEVC_2_C.jpg \nhttps://s3.postimg.org/ykqctsqn7/The_Last_Ship_S03_E10_Scuttle_720p_WEB_DL_HEVC_2_C.jpg\r\n\r\n\r\nSource: The Last Ship S03E10 Scuttle 1080p WEB-DL DD5 1 H264-Oosh (1.63 GB)\r\n\r\n\r\n__--__--__--__--__--__--__--__--__--__--__--__--__--\r\n\r\n\r\nComplete name                            : The.Last.Ship.S03E10.Scuttle.720p.WEB.DL.HEVC.2CH.x265.mkv\r\nFormat                                   : Matroska\r\nFormat version                           : Version 4 / Version 2\r\nFile size                                : 312 MiB\r\nDuration                                 : 41mn 58s\r\nOverall bit rate                         : 1 040 Kbps\r\nWriting application                      : Lavf57.25.100\r\nWriting library                          : Lavf57.25.100\r\n\r\nVideo\r\n\r\nID                                       : 1\r\nFormat                                   : V_MPEGH/ISO/HEVC\r\nCodec ID                                 : V_MPEGH/ISO/HEVC\r\nDuration                                 : 41mn 58s\r\nBit rate                                 : 827 Kbps\r\nWidth                                    : 1 274 pixels\r\nHeight                                   : 720 pixels\r\nDisplay aspect ratio                     : 16:9\r\nFrame rate                               : 25.000 fps\r\nBits/(Pixel*Frame)                       : 0.036\r\nStream size                              : 248 MiB (80%)\r\nWriting library                          : Lavc57.48.101 libx265\r\nLanguage                                 : English\r\nDefault                                  : Yes\r\nForced                                   : No\r\nDURATION                                 : 00:41:58.851000000\r\nNUMBER_OF_FRAMES                         : 60391\r\nNUMBER_OF_BYTES                          : 1629628561\r\n_STATISTICS_WRITING_APP                  : mkvmerge v9.3.1 ('Mask Machine') 64bit\r\n_STATISTICS_WRITING_DATE_UTC             : 2016-08-23 06:00:36\r\n_STATISTICS_TAGS                         : BPS DURATION NUMBER_OF_FRAMES NUMBER_OF_BYTES\r\n\r\nAudio\r\n\r\nID                                       : 2\r\nFormat                                   : AC-3\r\nFormat/Info                              : Audio Coding 3\r\nMode extension                           : CM (complete main)\r\nFormat settings, Endianness              : Big\r\nCodec ID                                 : A_AC3\r\nDuration                                 : 41mn 58s\r\nBit rate mode                            : Constant\r\nBit rate                                 : 192 Kbps\r\nChannel(s)                               : 2 channels\r\nChannel positions                        : Front: L R\r\nSampling rate                            : 48.0 KHz\r\nBit depth                                : 16 bits\r\nCompression mode                         : Lossy\r\nStream size                              : 57.7 MiB (18%)\r\nWriting library                          : Lavc57.24.102 ac3\r\nLanguage                                 : English\r\nDefault                                  : Yes\r\nForced                                   : No\r\nDURATION                                 : 00:41:58.847000000\r\nNUMBER_OF_FRAMES                         : 78712\r\nNUMBER_OF_BYTES                          : 120901632\r\n_STATISTICS_WRITING_APP                  : mkvmerge v9.3.1 ('Mask Machine') 64bit\r\n_STATISTICS_WRITING_DATE_UTC             : 2016-08-23 06:00:36\r\n_STATISTICS_TAGS                         : BPS DURATION NUMBER_OF_FRAMES NUMBER_OF_BYTES\r\n\r\nText\r\n\r\nID                                       : 3\r\nFormat                                   : ASS\r\nCodec ID                                 : S_TEXT/ASS\r\nCodec ID/Info                            : Advanced Sub Station Alpha\r\nCompression mode                         : Lossless\r\nWriting library                          : Lavc57.48.101 ssa\r\nLanguage                                 : English\r\nDefault                                  : No\r\nForced                                   : No\r\nDURATION                                 : 00:41:30.471000000\r\nNUMBER_OF_FRAMES                         : 835\r\nNUMBER_OF_BYTES                          : 35804\r\n_STATISTICS_WRITING_APP                  : mkvmerge v9.3.1 ('Mask Machine') 64bit\r\n_STATISTICS_WRITING_DATE_UTC             : 2016-08-23 06:00:36\r\n_STATISTICS_TAGS                         : BPS DURATION NUMBER_OF_FRAMES NUMBER_OF_BYTES\r\n\r\n__--__--__--__--__--__--__--__--__--__--__--__--__--\r\n\r\n\r\nIMDb: http://www.imdb.com/title/tt2402207\r\n\r\n\r\n__--__--__--__--__--__--__--__--__--__--__--__--__--\r\n\r\n\r\nAfter adding torrent with magnet link,\r\n\r\nplease add this  following trackers list to the torrent for better seeds.\r\n\r\n\r\nudp://tracker.coppersurfer.tk:6969/announce\r\n\r\nudp://tracker.opentrackr.org:1337/announce\r\n \nhttp://tracker.baravik.org:6970/announce\r\n \nhttp://tracker2.wasabii.com.tw:6969/announce\r\n\r\nudp://9.rarbg.me:2710/announce\r\n\r\n\r\n__--__--__--__--__--__--__--__--__--__--__--__--__--\r\n\r\n\r\nEnjoy!","torrent":{"xt":"urn:btih:4517295835b96984027401179fd44c22e9198e35","amp;dn":"The+Last+Ship+S03E10+Scuttle+720p+WEB-DL+HEVC+2CH+x265","amp;tr":["udp%3A%2F%2Ftracker.leechers-paradise.org%3A6969","udp%3A%2F%2Fzer0day.ch%3A1337","udp%3A%2F%2Fopen.demonii.com%3A1337","udp%3A%2F%2Ftracker.coppersurfer.tk%3A6969","udp%3A%2F%2Fexodus.desync.com%3A6969"],"infoHash":"4517295835b96984027401179fd44c22e9198e35","infoHashBuffer":{"type":"Buffer","data":[69,23,41,88,53,185,105,132,2,116,1,23,159,212,76,34,233,25,142,53]},"announce":[],"urlList":[]}}